# xmcd CD database file
#
# Track frame offsets:
#	150
#	20017
#	38175
#	45295
#	65200
#	87025
#	102170
#	113565
#	132105
#	146285
#	162115
#	184057
#	197637
#	223337
#	245267
#	260375
#	283160
#
# Disc length: 4015 seconds
#
# Revision: 0
# Processed by: cddbd v1.4PL0 Copyright (c) Steve Scherf et al.
# Submitted via: CDex 1.50beta10
#
DISCID=ee0fad11
DTITLE=Various Artist - TM Century
DYEAR=2003
DGENRE=Country
TTITLE0=Chet Atkins-Sails
TTITLE1=David Arkenstone-Ballet
TTITLE2=Steve Haun-Victory
TTITLE3=Patrick O'Hearn-Homeward Bound
TTITLE4=Mike Smiarowski-Festive Streets
TTITLE5=John Jarvis-Changing Colors
TTITLE6=Billy Joe Walker, Jr.-Candlelight
TTITLE7=Frank Potenza-Deja Vu
TTITLE8=Jim Chappell-The Finest of Times
TTITLE9=Frank Mills-Let's Not Leave This Way
TTITLE10=Don Harriss-Pirouettes and Promises
TTITLE11=John Jarvis-Long Distances
TTITLE12=Images-The Clown
TTITLE13=Acoustic Alchemy-Bright Tiger
TTITLE14=John Jarvis-Can't Turn My Heart Away
TTITLE15=Suzanne Ciani-Drifting
TTITLE16=Earl Klugh-Wishful Thinking
EXTD=YEAR: 2003
EXTT0=
EXTT1=
EXTT2=
EXTT3=
EXTT4=
EXTT5=
EXTT6=
EXTT7=
EXTT8=
EXTT9=
EXTT10=
EXTT11=
EXTT12=
EXTT13=
EXTT14=
EXTT15=
EXTT16=
PLAYORDER=
